<?xml version="1.0" standalone="no"?>
<!DOCTYPE svg PUBLIC "-//W3C//DTD SVG 20010904//EN"
 "http://www.w3.org/TR/2001/REC-SVG-20010904/DTD/svg10.dtd">
<svg version="1.0" xmlns="http://www.w3.org/2000/svg"
 width="651.000000pt" height="625.000000pt" viewBox="0 0 651.000000 625.000000"
 preserveAspectRatio="xMidYMid meet">

<g transform="translate(0.000000,625.000000) scale(0.100000,-0.100000)"
fill="#000000" stroke="none">
<path d="M490 6124 c-105 -28 -190 -98 -234 -193 l-21 -46 0 -2140 0 -2140 22
-48 c32 -69 116 -149 188 -178 l60 -24 1920 0 1920 0 60 24 c72 29 156 109
188 178 l22 48 0 2140 0 2140 -22 48 c-32 69 -116 149 -188 178 l-60 24 -1900
2 c-1649 2 -1907 0 -1955 -13z m3923 -77 c27 -16 47 -30 45 -32 -2 -3 -39 7
-82 21 l-78 24 -1891 -2 c-1551 -3 -1898 -5 -1927 -16 -61 -24 -65 -25 -80
-28 -22 -4 18 25 65 47 39 18 101 19 1970 16 l1930 -2 48 -28z m-1532 -703
l96 -7 40 -116 c23 -64 94 -264 158 -446 232 -653 257 -725 395 -1125 43 -124
149 -425 235 -670 86 -245 188 -534 225 -642 l69 -198 -1670 0 c-918 0 -1669
4 -1669 9 0 8 136 398 390 1121 72 206 141 402 151 435 31 94 344 981 542
1535 l34 95 404 5 c222 3 427 6 454 8 28 1 93 -1 146 -4z m1044 -1424 c-3 -5
-12 -10 -18 -10 -7 0 -6 4 3 10 19 12 23 12 15 0z m-2870 -40 c19 -8 19 -9 -2
-9 -12 -1 -25 4 -28 9 -7 12 2 12 30 0z m2765 -4 c0 -3 -4 -8 -10 -11 -5 -3
-10 -1 -10 4 0 6 5 11 10 11 6 0 10 -2 10 -4z m-2645 -35 c3 -5 1 -12 -4 -15
-5 -3 -11 1 -15 9 -6 16 9 21 19 6z"/>
<path d="M2392 4348 c-112 -390 -213 -743 -292 -1012 -49 -170 -90 -313 -90
-318 0 -4 187 -8 415 -8 228 0 415 4 415 8 0 5 -40 149 -90 321 -49 172 -90
315 -90 317 0 3 -5 2 -12 -2 -7 -5 -9 -2 -5 8 4 12 -175 669 -215 790 -2 5
-18 -41 -36 -104z m48 -608 c0 -5 -4 -10 -10 -10 -5 0 -10 5 -10 10 0 6 5 10
10 10 6 0 10 -4 10 -10z m-36 -42 c5 -10 7 -10 12 0 3 6 22 12 42 12 28 0 33
-3 22 -10 -10 -6 -11 -10 -2 -10 6 0 12 -11 12 -24 0 -19 -5 -23 -27 -21 -16
1 -49 3 -75 3 -41 2 -48 5 -48 22 0 13 7 20 20 20 11 0 20 5 20 10 0 14 17 12
24 -2z m-51 -65 c-7 -2 -19 -2 -25 0 -7 3 -2 5 12 5 14 0 19 -2 13 -5z"/>
<path d="M5890 5730 c0 -6 36 -10 88 -10 103 0 156 -13 177 -43 17 -25 20 -15
4 15 -18 33 -70 48 -174 48 -57 0 -95 -4 -95 -10z"/>
<path d="M5020 5430 c0 -6 55 -10 144 -10 86 0 147 4 151 10 4 6 -47 10 -144
10 -94 0 -151 -4 -151 -10z"/>
<path d="M6261 5285 c-31 -58 -119 -140 -178 -168 -43 -19 -69 -22 -250 -25
-122 -3 -203 -8 -203 -14 0 -6 76 -8 203 -6 194 3 204 4 258 29 31 15 75 46
98 70 40 42 107 146 99 154 -2 2 -14 -16 -27 -40z"/>
<path d="M4810 5080 c0 -6 32 -10 75 -10 43 0 75 4 75 10 0 6 -32 10 -75 10
-43 0 -75 -4 -75 -10z"/>
<path d="M5270 5080 c0 -6 32 -10 75 -10 43 0 75 4 75 10 0 6 -32 10 -75 10
-43 0 -75 -4 -75 -10z"/>
<path d="M334 1227 c-92 -64 -89 -45 -92 -507 -3 -456 -3 -460 68 -524 21 -19
56 -39 77 -45 53 -15 4023 -15 4076 0 21 6 56 26 77 45 71 64 71 68 68 526
l-3 406 -30 43 c-17 24 -49 52 -75 65 l-45 23 -2036 1 -2037 0 -48 -33z m715
-203 c23 -7 23 -10 18 -72 -4 -36 -8 -66 -9 -67 -2 -2 -25 1 -53 5 -87 15
-192 12 -209 -6 -19 -19 -21 -74 -3 -96 6 -9 56 -28 109 -43 169 -48 193 -77
186 -227 -5 -104 -20 -131 -92 -167 -42 -21 -62 -24 -150 -24 -96 0 -207 20
-228 41 -6 6 7 104 17 120 1 1 31 -4 66 -13 87 -20 193 -20 213 1 21 20 21 97
1 114 -8 6 -55 22 -104 35 -154 39 -182 67 -189 188 -11 182 52 232 283 222
66 -2 131 -8 144 -11z m1175 2 c70 -21 113 -55 141 -110 24 -48 25 -58 25
-225 0 -191 -7 -234 -47 -281 -100 -119 -379 -111 -461 13 -27 40 -27 42 -30
248 -3 193 -2 210 17 248 29 56 89 97 166 114 45 10 145 6 189 -7z m1936 3
c35 -5 66 -12 68 -14 2 -2 1 -33 -3 -70 -6 -55 -10 -65 -24 -60 -9 4 -61 9
-117 12 -126 7 -144 0 -144 -61 0 -24 6 -48 13 -54 7 -6 57 -23 111 -38 53
-15 112 -37 129 -48 44 -30 60 -82 54 -177 -10 -152 -59 -189 -252 -190 -96 0
-196 18 -217 39 -11 11 8 122 20 122 4 0 32 -7 62 -15 77 -21 188 -20 212 2
21 19 24 81 6 106 -7 9 -51 26 -98 38 -164 41 -193 68 -198 185 -2 41 -1 90 2
109 10 50 50 93 104 109 56 17 182 20 272 5z m-2509 -27 c73 -35 89 -75 89
-213 0 -99 -3 -119 -23 -153 -35 -63 -91 -86 -226 -93 l-111 -6 0 -104 0 -104
-77 3 -78 3 -3 348 -2 349 192 -4 c176 -3 197 -5 239 -26z m1318 -2 c71 -40
86 -75 86 -205 0 -124 -17 -176 -67 -204 -15 -9 -26 -21 -24 -28 3 -6 39 -59
80 -117 53 -74 72 -108 63 -112 -8 -3 -49 -4 -93 -2 l-78 3 -76 105 -77 105
-46 3 -47 3 0 -111 0 -111 -77 3 -78 3 -3 348 -2 349 197 -4 c190 -3 200 -4
242 -28z m711 -40 l0 -70 -90 0 -90 0 -2 -277 -3 -278 -77 -3 -78 -3 -2 278
-3 278 -92 3 -93 3 0 69 0 70 265 0 265 0 0 -70z"/>
<path d="M2065 889 c-16 -5 -36 -16 -42 -26 -18 -24 -18 -342 0 -367 17 -24
83 -37 132 -26 69 16 75 31 75 200 0 82 -4 160 -10 175 -17 44 -87 65 -155 44z"/>
<path d="M1380 786 l0 -106 78 0 c110 0 122 10 122 104 0 94 -7 100 -117 105
l-83 3 0 -106z"/>
<path d="M2690 790 l0 -100 89 0 c109 0 116 6 116 97 0 89 -17 103 -126 103
l-79 0 0 -100z"/>
</g>
</svg>
