<svg xmlns="http://www.w3.org/2000/svg" width="163" height="156" viewBox="0 0 163 156" version="1.1"><path d="M 121.602 17.750 C 119.549 28.935, 119.553 29, 122.383 29 C 124.836 29, 125.958 26.898, 125.986 22.250 C 125.998 20.361, 126.545 20, 129.395 20 L 132.789 20 131.919 23.750 C 130.680 29.085, 130.709 29.167, 133.732 28.816 C 136.282 28.521, 136.546 28.031, 137.671 21.500 C 139.564 10.516, 139.429 9, 136.563 9 C 134.545 9, 134.073 9.558, 133.813 12.250 C 133.542 15.059, 133.086 15.541, 130.445 15.799 C 127.491 16.088, 127.404 15.980, 127.805 12.549 C 128.182 9.318, 127.994 9, 125.713 9 C 123.353 9, 123.115 9.506, 121.602 17.750 M 142.121 17.250 C 141.447 21.788, 140.664 26.287, 140.380 27.250 C 139.931 28.776, 140.614 29, 145.710 29 C 152.446 29, 155.014 27.598, 157.370 22.633 C 159.422 18.308, 159.450 14.087, 157.443 11.223 C 156.116 9.328, 154.962 9, 149.616 9 L 143.346 9 142.121 17.250 M 147.326 14.250 C 147.321 14.938, 146.994 17.637, 146.598 20.250 C 145.956 24.480, 146.082 25, 147.748 25 C 151.186 25, 153.182 22.561, 153.732 17.689 L 154.260 13 150.797 13 C 148.697 13, 147.330 13.492, 147.326 14.250 M 40.263 42.723 C 30.693 69.124, 20 99.911, 20 101.067 C 20 101.629, 36.280 102, 60.930 102 L 101.860 102 101.011 99.250 C 98.290 90.439, 79.787 37.290, 77.250 31 L 74.226 23.500 60.829 23.223 L 47.433 22.946 40.263 42.723 M 59.040 51.300 C 58.317 54.160, 56.215 61.450, 54.366 67.500 C 52.518 73.550, 51.005 79.063, 51.003 79.750 C 51.001 80.667, 53.665 81, 61 81 C 68.703 81, 71 80.691, 71 79.657 C 71 78.918, 69.217 72.825, 67.038 66.116 C 64.858 59.407, 62.782 52.356, 62.424 50.448 C 61.453 45.271, 60.501 45.511, 59.040 51.300 M 17.200 131.200 C 16.540 131.860, 16 133.817, 16 135.548 C 16 138.293, 16.513 138.898, 20 140.268 C 22.200 141.132, 24 142.325, 24 142.920 C 24 143.514, 22.200 144, 20 144 C 17.134 144, 16 144.420, 16 145.481 C 16 147.297, 20.105 148.441, 23.534 147.581 C 29.249 146.146, 28.811 138.512, 22.946 137.339 C 18.715 136.493, 19.129 134, 23.500 134 C 26.333 134, 27 133.619, 27 132 C 27 130.310, 26.333 130, 22.700 130 C 20.335 130, 17.860 130.540, 17.200 131.200 M 31 139.073 C 31 147.174, 31.188 148.111, 32.750 147.815 C 33.805 147.615, 34.626 146.395, 34.816 144.741 C 35.089 142.383, 35.585 142, 38.366 142 C 42.582 142, 44 140.448, 44 135.835 C 44 131.292, 42.132 130, 35.566 130 L 31 130 31 139.073 M 47.397 132.516 C 45.206 135.861, 45.936 144.749, 48.560 146.668 C 50.998 148.451, 55.053 148.352, 57.777 146.443 C 59.645 145.135, 60 143.949, 60 139.015 C 60 131.930, 58.491 130, 52.952 130 C 49.882 130, 48.693 130.539, 47.397 132.516 M 63.373 138.687 C 63.740 143.465, 64.237 147.570, 64.477 147.810 C 65.638 148.972, 68 146.774, 68 144.531 C 68 141.269, 68.576 141.343, 71.653 145 C 74.265 148.104, 77 148.973, 77 146.700 C 77 145.985, 76.449 144.849, 75.775 144.175 C 74.808 143.208, 74.808 142.536, 75.775 140.989 C 77.481 138.257, 77.304 133.447, 75.429 131.571 C 74.376 130.519, 72.017 130, 68.281 130 L 62.705 130 63.373 138.687 M 78.187 131.750 C 78.370 132.713, 79.528 133.644, 80.760 133.820 C 82.816 134.113, 83 134.670, 83 140.601 C 83 145.503, 83.373 147.206, 84.543 147.655 C 86.885 148.554, 87.374 147.488, 87.818 140.516 C 88.176 134.899, 88.488 134.072, 90.353 133.805 C 91.523 133.637, 92.630 132.713, 92.813 131.750 C 93.107 130.207, 92.243 130, 85.500 130 C 78.757 130, 77.893 130.207, 78.187 131.750 M 95.571 131.571 C 93.688 133.455, 93.512 137.371, 95.250 138.740 C 95.938 139.281, 97.737 140.020, 99.250 140.381 C 103.333 141.356, 102.737 143.817, 98.327 144.190 C 96.307 144.360, 94.478 145.037, 94.263 145.693 C 93.693 147.431, 100.635 148.488, 103.637 147.120 C 105.738 146.162, 106.072 145.413, 105.810 142.244 C 105.540 138.989, 105.076 138.375, 102.250 137.543 C 98.070 136.313, 98.065 134.217, 102.242 133.813 C 104.377 133.607, 105.597 132.903, 105.815 131.750 C 106.091 130.293, 105.392 130, 101.645 130 C 98.885 130, 96.535 130.608, 95.571 131.571 M 35 136.500 C 35 138.665, 35.404 139.082, 37.250 138.820 C 38.727 138.610, 39.500 137.813, 39.500 136.500 C 39.500 135.187, 38.727 134.390, 37.250 134.180 C 35.404 133.918, 35 134.335, 35 136.500 M 51 138.930 C 51 143.700, 51.151 144, 53.555 144 C 55.979 144, 56.094 143.757, 55.805 139.250 C 55.545 135.197, 55.170 134.453, 53.250 134.180 C 51.171 133.885, 51 134.245, 51 138.930 M 68 136.500 C 68 138.333, 68.533 139, 70 139 C 71.467 139, 72 138.333, 72 136.500 C 72 134.667, 71.467 134, 70 134 C 68.533 134, 68 134.667, 68 136.500" stroke="none" fill="#f2eceb" fill-rule="evenodd"/><path d="M 11.500 2.926 C 10.400 3.387, 8.600 4.764, 7.500 5.986 C 5.562 8.139, 5.491 9.826, 5.216 60.120 C 5.026 94.761, 5.288 113.355, 6.002 116.009 C 7.926 123.154, 6.709 123, 61.374 123 L 109.847 123 112.923 120.411 L 116 117.822 116 62.585 L 116 7.349 113.420 4.924 L 110.841 2.500 62.170 2.294 C 35.402 2.181, 12.600 2.466, 11.500 2.926 M 147 13.391 C 147 13.605, 148.575 13.965, 150.500 14.190 C 152.425 14.415, 154 14.239, 154 13.799 C 154 13.360, 152.425 13, 150.500 13 C 148.575 13, 147 13.176, 147 13.391 M 127.762 20.707 C 129.006 20.946, 130.806 20.937, 131.762 20.687 C 132.718 20.437, 131.700 20.241, 129.500 20.252 C 127.300 20.263, 126.518 20.468, 127.762 20.707 M 40.263 42.723 C 30.693 69.124, 20 99.911, 20 101.067 C 20 101.629, 36.280 102, 60.930 102 L 101.860 102 101.011 99.250 C 98.290 90.439, 79.787 37.290, 77.250 31 L 74.226 23.500 60.829 23.223 L 47.433 22.946 40.263 42.723 M 155.338 25.750 C 153.549 28.147, 152.400 28.576, 146.393 29.093 L 139.500 29.685 145.527 29.843 C 151.862 30.008, 155.045 28.653, 157.027 24.949 C 158.514 22.170, 157.733 22.541, 155.338 25.750 M 121.269 29.693 C 122.242 29.947, 123.592 29.930, 124.269 29.656 C 124.946 29.382, 124.150 29.175, 122.500 29.195 C 120.850 29.215, 120.296 29.439, 121.269 29.693 M 132.269 29.693 C 133.242 29.947, 134.592 29.930, 135.269 29.656 C 135.946 29.382, 135.150 29.175, 133.500 29.195 C 131.850 29.215, 131.296 29.439, 132.269 29.693 M 59.040 51.300 C 58.317 54.160, 56.215 61.450, 54.366 67.500 C 52.518 73.550, 51.005 79.063, 51.003 79.750 C 51.001 80.667, 53.665 81, 61 81 C 68.703 81, 71 80.691, 71 79.657 C 71 78.918, 69.217 72.825, 67.038 66.116 C 64.858 59.407, 62.782 52.356, 62.424 50.448 C 61.453 45.271, 60.501 45.511, 59.040 51.300 M 7.571 125.571 C 6.329 126.814, 6 129.501, 6 138.416 C 6 148.068, 6.263 149.928, 7.829 151.345 C 9.480 152.839, 14.601 153, 60.606 153 C 105.100 153, 111.837 152.803, 113.777 151.443 C 115.853 149.990, 116 149.132, 116 138.515 C 116 129.510, 115.673 126.816, 114.429 125.571 C 113.040 124.183, 106.810 124, 61 124 C 15.190 124, 8.960 124.183, 7.571 125.571 M 17.200 131.200 C 16.540 131.860, 16 133.817, 16 135.548 C 16 138.293, 16.513 138.898, 20 140.268 C 22.200 141.132, 24 142.325, 24 142.920 C 24 143.514, 22.200 144, 20 144 C 17.134 144, 16 144.420, 16 145.481 C 16 147.297, 20.105 148.441, 23.534 147.581 C 29.249 146.146, 28.811 138.512, 22.946 137.339 C 18.715 136.493, 19.129 134, 23.500 134 C 26.333 134, 27 133.619, 27 132 C 27 130.310, 26.333 130, 22.700 130 C 20.335 130, 17.860 130.540, 17.200 131.200 M 31 139.073 C 31 147.174, 31.188 148.111, 32.750 147.815 C 33.805 147.615, 34.626 146.395, 34.816 144.741 C 35.089 142.383, 35.585 142, 38.366 142 C 42.582 142, 44 140.448, 44 135.835 C 44 131.292, 42.132 130, 35.566 130 L 31 130 31 139.073 M 47.397 132.516 C 45.206 135.861, 45.936 144.749, 48.560 146.668 C 50.998 148.451, 55.053 148.352, 57.777 146.443 C 59.645 145.135, 60 143.949, 60 139.015 C 60 131.930, 58.491 130, 52.952 130 C 49.882 130, 48.693 130.539, 47.397 132.516 M 63.373 138.687 C 63.740 143.465, 64.237 147.570, 64.477 147.810 C 65.638 148.972, 68 146.774, 68 144.531 C 68 141.269, 68.576 141.343, 71.653 145 C 74.265 148.104, 77 148.973, 77 146.700 C 77 145.985, 76.449 144.849, 75.775 144.175 C 74.808 143.208, 74.808 142.536, 75.775 140.989 C 77.481 138.257, 77.304 133.447, 75.429 131.571 C 74.376 130.519, 72.017 130, 68.281 130 L 62.705 130 63.373 138.687 M 78.187 131.750 C 78.370 132.713, 79.528 133.644, 80.760 133.820 C 82.816 134.113, 83 134.670, 83 140.601 C 83 145.503, 83.373 147.206, 84.543 147.655 C 86.885 148.554, 87.374 147.488, 87.818 140.516 C 88.176 134.899, 88.488 134.072, 90.353 133.805 C 91.523 133.637, 92.630 132.713, 92.813 131.750 C 93.107 130.207, 92.243 130, 85.500 130 C 78.757 130, 77.893 130.207, 78.187 131.750 M 95.571 131.571 C 93.688 133.455, 93.512 137.371, 95.250 138.740 C 95.938 139.281, 97.737 140.020, 99.250 140.381 C 103.333 141.356, 102.737 143.817, 98.327 144.190 C 96.307 144.360, 94.478 145.037, 94.263 145.693 C 93.693 147.431, 100.635 148.488, 103.637 147.120 C 105.738 146.162, 106.072 145.413, 105.810 142.244 C 105.540 138.989, 105.076 138.375, 102.250 137.543 C 98.070 136.313, 98.065 134.217, 102.242 133.813 C 104.377 133.607, 105.597 132.903, 105.815 131.750 C 106.091 130.293, 105.392 130, 101.645 130 C 98.885 130, 96.535 130.608, 95.571 131.571 M 35 136.500 C 35 138.665, 35.404 139.082, 37.250 138.820 C 38.727 138.610, 39.500 137.813, 39.500 136.500 C 39.500 135.187, 38.727 134.390, 37.250 134.180 C 35.404 133.918, 35 134.335, 35 136.500 M 51 138.930 C 51 143.700, 51.151 144, 53.555 144 C 55.979 144, 56.094 143.757, 55.805 139.250 C 55.545 135.197, 55.170 134.453, 53.250 134.180 C 51.171 133.885, 51 134.245, 51 138.930 M 68 136.500 C 68 138.333, 68.533 139, 70 139 C 71.467 139, 72 138.333, 72 136.500 C 72 134.667, 71.467 134, 70 134 C 68.533 134, 68 134.667, 68 136.500" stroke="none" fill="#dc3216" fill-rule="evenodd"/></svg>